<?xml version="1.0" encoding="utf-8"?>
<!-- Svg Vector Icons : http://www.onlinewebfonts.com/icon -->
<!DOCTYPE svg PUBLIC "-//W3C//DTD SVG 1.1//EN" "http://www.w3.org/Graphics/SVG/1.1/DTD/svg11.dtd">
<svg version="1.1" xmlns="http://www.w3.org/2000/svg" height="35px" width="35px"  xmlns:xlink="http://www.w3.org/1999/xlink" x="0px" y="0px" viewBox="0 0 256 256"  xml:space="preserve">
<metadata> Svg Vector Icons : http://www.onlinewebfonts.com/icon </metadata>
<g><g><path fill="#fff" d="M236.6,230.7h-7.2v-10.2v-4.4V151c0-11.5-9.3-20.8-20.8-20.8H48.2c-11.5,0-20.8,9.3-20.8,20.8v65.1v4.4v10.2h-8c-5.2,0-9.4,4.2-9.4,9.4c0,5.2,4.2,9.4,9.4,9.4h217.1c5.2,0,9.4-4.2,9.4-9.4C246,235,241.8,230.7,236.6,230.7z M217.8,231H39.2v-36.2c1.3-3.6,4.7-10.8,9-10.7c7,0.2,4.7,6.7,9.4,6.7c10.6,0,13.2-15.4,13-19c-0.2-3.6,1.3-10.6,5.7-11.5c4.5-0.8,9.4,5.3,10.8,9.2c1.5,3.8,6.6,6.4,6.6,6.4c6.2,0,13.2-4.5,14.2-11.3c-1.1-11.1,2.3-14,6.6-14c9.8,0.4,10.6,13.6,10.6,13.6c-0.8,8.3-7.7,23.6-7.9,33c0.6,0.4-3,15.3,11.6,17c14.6,1.7,13.7-11.7,13.7-11.7c0.2-9.2-7.7-30.4-6.8-35.7c0.8-5.3,1.1-10.4,7.9-10.8c10.8-0.8,6.6,17.4,6.6,17.4c0.2,5.1,0.8,14.9,9.6,15.5c12.3,0.4,14.2-13.6,14-17.2c-0.2-3.6-7.4-12.6-4.2-16.6c3.2-4,5.3-3.4,8.3-3.4c7.7,0,13.6,15.7,14.7,16.8c1.1,1.1,4.9,0.2,4.9,0.2c8.9-11.7,11.3-11.1,11.3-11.1c6.9-1.5,8.9,8.9,8.9,8.9L217.8,231L217.8,231z"/><path fill="#fff" d="M187.3,90.2H182c0-0.1,0.1-0.3,0.1-0.5V63.9c0-1.5-1.2-2.7-2.7-2.7h-15c-1.5,0-2.7,1.2-2.7,2.7v25.9c0,0.2,0,0.3,0.1,0.5h-25.6c0-0.1,0.1-0.3,0.1-0.5V63.9c0-1.5-1.2-2.7-2.7-2.7h-15c-1.5,0-2.7,1.2-2.7,2.7v25.9c0,0.2,0,0.3,0,0.5h-26c0-0.1,0-0.3,0-0.5V63.9c0-1.5-1.2-2.7-2.7-2.7h-15c-1.5,0-2.7,1.2-2.7,2.7v25.9c0,0.2,0,0.3,0,0.5h-0.1c-10,0-18.1,8.1-18.1,18.1v32.3h154.1v-32.3C205.3,98.3,197.3,90.2,187.3,90.2z M193.8,130.3H62.4v-18.2c0-5.4,4.1-9.8,9.5-9.8h112.8c5.4,0,9.5,4.4,9.5,9.8L193.8,130.3z"/><path fill="#fff" d="M76.9,6.4c0,0,20.4,17.2,20.2,31.9C96.9,53,85.9,55.1,85,56.2c0,0,3.6-18.5-4-18.7c0,0-13.5,4-2.3,20c0,0-14.9-1.3-15.5-17.9c0,0-4-7.7,13.6-18.9C76.7,20.6,79.3,17.7,76.9,6.4z"/><path fill="#fff" d="M123.3,6.4c0,0,20.4,17.2,20.2,31.9c-0.2,14.7-11.3,16.8-12.1,17.9c0,0,3.6-18.5-4-18.7c0,0-13.5,4-2.3,20c0,0-14.9-1.3-15.5-17.9c0,0-4-7.7,13.6-18.9C123.1,20.6,125.7,17.7,123.3,6.4z"/><path fill="#fff" d="M169.3,6.4c0,0,20.4,17.2,20.2,31.9c-0.2,14.7-11.3,16.8-12.1,17.9c0,0,3.6-18.5-4-18.7c0,0-13.5,4-2.3,20c0,0-14.9-1.3-15.5-17.9c0,0-4-7.7,13.6-18.9C169.1,20.6,171.6,17.7,169.3,6.4z"/></g></g>
</svg>