<?xml version="1.0" encoding="utf-8"?>
<!-- Svg Vector Icons : http://www.onlinewebfonts.com/icon -->
<!DOCTYPE svg PUBLIC "-//W3C//DTD SVG 1.1//EN" "http://www.w3.org/Graphics/SVG/1.1/DTD/svg11.dtd">
<svg version="1.1" xmlns="http://www.w3.org/2000/svg" xmlns:xlink="http://www.w3.org/1999/xlink" x="0px" y="0px" viewBox="0 0 256 256" width="35px" height="35px" xml:space="preserve">
<metadata> Svg Vector Icons : http://www.onlinewebfonts.com/icon </metadata>
<g><g><g><path stroke-width="8" fill-opacity="0" stroke="#fff"  d="M102.6,10.5c-8.3,1.8-15.8,7.8-19.3,15c-2.2,4.7-2.9,7.5-2.9,12.7c0,12.8,8.6,23.9,21,27.1c3.6,0.9,10.5,0.9,14.2,0c10.1-2.6,18.3-11.3,20.5-21.5c0.9-4.2,0.6-10.1-0.7-14.3c-2.7-8.5-9.9-15.8-18.5-18.5C112.9,9.9,106.5,9.6,102.6,10.5z"/><path stroke-width="8" fill-opacity="0" stroke="#fff"  d="M152.5,30.9c-0.2,1-0.7,2.6-1,3.7c-0.3,1.4-0.7,2-1.3,2c-1.4,0-3.6,1.7-4.4,3.4c-0.7,1.4-0.8,3.3-0.8,13.3c0,10.2,0.1,11.9,0.8,13.3c1.1,2.1,3.5,3.7,5.7,3.7c1.8,0,1.8,0,1.8,1.7c0,1.4-0.3,2-1.6,3c-2.7,2.2-4.1,5.1-4.2,8.6c0,1.7,0.1,3.5,0.3,4.2c0.4,1.2,0.3,1.2-11.7,5.1l-12,4L113,86.6c-6.1-5.7-12.1-11.2-13.4-12.2C96.7,72,90,68.7,86,67.6c-4.1-1.1-11.8-1.1-15.5,0c-5,1.5-7,3.2-11.8,10.3c-2.4,3.6-8.8,12.8-14.3,20.7c-5.5,7.8-10.8,15.8-11.9,17.7c-5.4,9.6-8,20.7-6.6,29.4c0.3,2,2.5,23,4.8,46.6c4.8,47.5,4.5,45.6,8.2,49.4c8.3,8.5,23,3.2,23.8-8.6c0.1-1.8-0.7-11.7-1.9-24c-1.2-11.5-2.1-21-2-21.1c0.1-0.1,4.9,11.3,10.7,25.4c11.7,28.3,11.8,28.6,16.8,31c2.2,1.1,3.2,1.3,6.1,1.3c5.9,0,10.2-2.9,12.8-8.4c0.9-2.1,1.1-3,0.9-6c-0.2-3.5-0.7-4.8-16.6-43.4l-16.4-39.9l14-20.6c7.8-11.3,14.1-20.7,14.2-20.7c0,0,3.9,3.4,8.6,7.7c4.7,4.3,8.8,7.8,9,7.8c0.3,0,6.2-2,13.2-4.4c7.1-2.4,12.8-4.2,12.8-3.9s-5.7,29.2-12.7,64.4c-7,35.1-12.5,64.3-12.4,64.8c0.4,1.2,2.4,2.8,3.7,2.8c0.6,0,1.6-0.5,2.3-1.1c1.2-1,1.5-2.3,5.9-24.8l4.7-23.7l5.6-0.1l5.6-0.1v-3.6v-3.7h-4.9c-4.4,0-4.9-0.1-4.7-0.8c0.1-0.4,3.6-18,7.8-39c6.1-30.9,7.7-38.3,8.4-38.7c0.7-0.4,0.8,2.9,0.8,66.2v66.8l1.3,1.3c0.8,0.8,1.8,1.3,2.6,1.3c0.7,0,1.8-0.6,2.6-1.3l1.3-1.3v-23.6v-23.6l9.3,0.1l9.3,0.1l4.7,23.7c4.4,22.5,4.8,23.8,5.9,24.8c0.7,0.6,1.8,1.1,2.4,1.1c1.2,0,3.9-2.3,3.9-3.3c0-0.3-6.7-34.5-15-76l-15-75.4l1-2.1c1.6-3.2,1.5-7.8-0.2-10.7c-0.7-1.2-2-2.8-2.9-3.5c-1.3-1.1-1.6-1.6-1.6-3c0-1.7,0-1.7,1.8-1.7c2.2,0,4.7-1.6,5.6-3.6l0.7-1.5h5.2h5.2v1.2v1.2h15.2h15.2v1.4v1.4h8.3h8.3V53.2V36.1l-8.4,0.1l-8.4,0.1l-0.1,5.5c-0.1,6-0.6,7.2-2.7,7.2c-2.2,0-2.9-1.5-2.9-5.8v-3.9h-12.2h-12.2v1.2v1.2h-5.2h-5.2l-0.6-1.7c-0.7-1.8-2.6-3.2-5.2-3.6c-1.8-0.3-1.7-0.1-3-5.3l-0.4-1.6l-5.4-0.1l-5.4-0.1L152.5,30.9z M197.5,45.8c0.3,1.8-1,2.4-4.8,2.4c-3.4,0-4.8-0.6-4.8-2c0-1.3,1.2-1.7,5.3-1.6C197.3,44.6,197.4,44.7,197.5,45.8z M180.1,188.4c0,0.2-3.8,0.4-8.5,0.4H163l0-42.6l0-42.5l8.4,42.2C176.2,169.1,180.1,188.2,180.1,188.4z"/></g></g></g>
</svg>